<svg width="1440" height="360" viewBox="0 0 1440 360" fill="none" xmlns="http://www.w3.org/2000/svg">
<path fill-rule="evenodd" clip-rule="evenodd" d="M1288.53 0V174.121H1389V230H1217.2V0H1288.53Z" fill="#1B1B1B"/>
<path fill-rule="evenodd" clip-rule="evenodd" d="M1118.41 0V51.733H982.57V88.9558H1107.81V140.689H982.57V178.267H1122.24V230H911.271V0H1118.41Z" fill="#1B1B1B"/>
<path fill-rule="evenodd" clip-rule="evenodd" d="M744.677 230H680.17L590.291 0H664.851L713.172 139.297L760.594 0H833.958L744.677 230Z" fill="#1B1B1B"/>
<path fill-rule="evenodd" clip-rule="evenodd" d="M511.812 0V51.733H375.976V88.9558H501.22V140.689H375.976V178.267H515.641V230H304.677V0H511.812Z" fill="#1B1B1B"/>
<path fill-rule="evenodd" clip-rule="evenodd" d="M121.299 0V174.121H221.77V230H50V0H121.299Z" fill="#1B1B1B"/>
<path fill-rule="evenodd" clip-rule="evenodd" d="M1015.42 281.5L991.674 283.313C991.24 281.391 990.152 279.676 988.592 278.452C985.936 276.952 982.897 276.246 979.844 276.42C972.291 276.42 968.514 278.416 968.514 282.407C968.478 283.138 968.63 283.866 968.955 284.524C969.28 285.182 969.769 285.748 970.375 286.168C972.643 287.428 975.113 288.292 977.678 288.722L997.117 293.116C1002.77 294.023 1008.03 296.521 1012.28 300.31C1015.55 303.914 1017.24 308.655 1016.97 313.49C1017 317.733 1015.89 321.908 1013.78 325.6C1011.79 329.163 1008.84 332.11 1005.25 334.112C996.766 338.298 987.351 340.309 977.873 339.961C963.543 339.961 953.639 336.958 948.159 330.954C944.492 326.638 942.201 321.344 941.577 315.742L966.07 314.836C967.237 320.629 972.013 323.513 980.455 323.513C983.681 323.682 986.889 322.939 989.703 321.371C990.751 320.789 991.621 319.939 992.222 318.91C992.823 317.881 993.132 316.71 993.118 315.522C993.118 312.227 990.341 310.03 985.093 308.987L966.07 305.28C951.797 302.479 944.66 295.495 944.66 284.329C944.535 280.803 945.324 277.305 946.952 274.167C948.581 271.028 950.994 268.354 953.963 266.398C960.183 262.114 968.847 260 979.955 260C992.692 260 1001.95 262.288 1007.73 266.865C1012.08 270.599 1014.83 275.832 1015.42 281.5Z" fill="#1B1B1B"/>
<path fill-rule="evenodd" clip-rule="evenodd" d="M920.803 281.5L897.06 283.313C896.616 281.388 895.518 279.673 893.95 278.452C891.303 276.955 888.274 276.249 885.23 276.42C877.676 276.42 873.9 278.416 873.9 282.407C873.858 283.139 874.008 283.869 874.333 284.528C874.659 285.186 875.151 285.751 875.76 286.168C878.026 287.433 880.498 288.297 883.064 288.722L902.503 293.116C908.151 294.023 913.415 296.521 917.665 300.31C920.924 303.92 922.611 308.657 922.358 313.49C922.381 317.733 921.28 321.908 919.165 325.599C917.177 329.174 914.213 332.124 910.612 334.112C902.135 338.302 892.728 340.313 883.258 339.961C868.929 339.961 859.024 336.958 853.544 330.954C849.878 326.638 847.587 321.344 846.963 315.742L871.428 314.836C872.594 320.639 877.399 323.531 885.841 323.513C889.066 323.682 892.274 322.939 895.088 321.371C896.133 320.788 896.999 319.937 897.595 318.907C898.192 317.878 898.496 316.708 898.476 315.522C898.476 312.227 895.699 310.03 890.478 308.987L871.428 305.28C857.191 302.479 850.064 295.495 850.045 284.329C849.92 280.803 850.71 277.305 852.338 274.167C853.966 271.028 856.38 268.354 859.348 266.398C865.569 262.114 874.205 260 885.313 260C898.087 260 907.344 262.288 913.083 266.865C917.437 270.601 920.196 275.831 920.803 281.5Z" fill="#1B1B1B"/>
<path fill-rule="evenodd" clip-rule="evenodd" d="M824.83 262.361V279.248H777.427V291.413H821.137V308.3H777.427V320.602H826.191V337.489H752.545V262.361H824.83Z" fill="#1B1B1B"/>
<path fill-rule="evenodd" clip-rule="evenodd" d="M725.693 262.361V337.489H705.559L672.846 297.152V337.489H649.075V262.361H669.347L701.949 302.891V262.361H725.693Z" fill="#1B1B1B"/>
<path fill-rule="evenodd" clip-rule="evenodd" d="M629.858 262.361V279.248H605.698V337.489H580.789V279.248H556.518V262.361H629.858Z" fill="#1B1B1B"/>
<path d="M536.775 262.361H511.893V337.489H536.775V262.361Z" fill="#1B1B1B"/>
<path fill-rule="evenodd" clip-rule="evenodd" d="M489.259 262.361V279.248H446.882V293.664H485.871V310.552H446.882V337.489H422V262.361H489.259Z" fill="#1B1B1B"/>
</svg>
